<svg width="100" height="129" viewBox="0 0 100 129" fill="none" xmlns="http://www.w3.org/2000/svg">
<path fill-rule="evenodd" clip-rule="evenodd" d="M47.8983 6.5V13H31.3983H14.8983V46.5V80H11.6483H8.39832V82.2375V84.475L16.3548 84.6125L24.3113 84.75L22.5298 87.75C5.57082 116.303 -0.132184 126.285 0.00231601 127.178C0.212816 128.576 1.67632 129.382 2.77332 128.704C3.25482 128.408 9.42682 118.396 16.4898 106.457L29.3313 84.75L38.6093 84.614L47.8878 84.478L48.0178 106.31C48.1383 126.475 48.2153 128.183 49.0233 128.693C49.6613 129.095 50.1353 129.095 50.7733 128.693C51.5813 128.183 51.6583 126.476 51.7788 106.321L51.9088 84.5H61.1018H70.2948L83.2218 106.335C90.3313 118.344 96.5418 128.411 97.0233 128.707C98.1243 129.384 99.5843 128.572 99.7958 127.166C99.8823 126.591 94.8788 117.606 87.7128 105.467L75.4818 84.75L83.4398 84.6125L91.3983 84.475V82.2375V80H88.6518H85.9053L85.7768 46.625L85.6483 13.25L69.0233 13.1185L52.3983 12.9865V6.4935V0H50.1483H47.8983V6.5ZM81.3983 48.75V80H50.1483H18.8983V48.75V17.5H50.1483H81.3983V48.75ZM38.3983 22V23.5H50.3983H62.3983V22V20.5H50.3983H38.3983V22Z" fill="black"/>
</svg>
